<svg width="230" height="24" viewBox="0 0 230 24" fill="none" xmlns="http://www.w3.org/2000/svg">
<path d="M20.0001 8.00001L14.0001 2.74001C13.4501 2.24805 12.738 1.97607 12.0001 1.97607C11.2622 1.97607 10.5501 2.24805 10.0001 2.74001L4.00009 8.00001C3.68246 8.28408 3.42899 8.63256 3.25657 9.02225C3.08414 9.41194 2.99671 9.83389 3.00009 10.26V19C3.00009 19.7957 3.31617 20.5587 3.87877 21.1213C4.44138 21.6839 5.20445 22 6.00009 22H18.0001C18.7957 22 19.5588 21.6839 20.1214 21.1213C20.684 20.5587 21.0001 19.7957 21.0001 19V10.25C21.0021 9.82557 20.9139 9.40555 20.7416 9.01769C20.5692 8.62983 20.3165 8.28296 20.0001 8.00001ZM14.0001 20H10.0001V15C10.0001 14.7348 10.1055 14.4804 10.293 14.2929C10.4805 14.1054 10.7349 14 11.0001 14H13.0001C13.2653 14 13.5197 14.1054 13.7072 14.2929C13.8947 14.4804 14.0001 14.7348 14.0001 15V20ZM19.0001 19C19.0001 19.2652 18.8947 19.5196 18.7072 19.7071C18.5197 19.8946 18.2653 20 18.0001 20H16.0001V15C16.0001 14.2044 15.684 13.4413 15.1214 12.8787C14.5588 12.3161 13.7957 12 13.0001 12H11.0001C10.2044 12 9.44138 12.3161 8.87877 12.8787C8.31616 13.4413 8.00009 14.2044 8.00009 15V20H6.00009C5.73488 20 5.48052 19.8946 5.29299 19.7071C5.10545 19.5196 5.00009 19.2652 5.00009 19V10.25C5.00027 10.108 5.03069 9.9677 5.08931 9.83839C5.14794 9.70907 5.23343 9.59372 5.3401 9.50001L11.3401 4.25001C11.5226 4.08969 11.7572 4.00127 12.0001 4.00127C12.243 4.00127 12.4776 4.08969 12.6601 4.25001L18.6601 9.50001C18.7668 9.59372 18.8523 9.70907 18.9109 9.83839C18.9695 9.9677 18.9999 10.108 19.0001 10.25V19Z" fill="#006AFF"/>
<path opacity="0.5" d="M35.0938 18H39.3516C41.75 18 43.1719 16.8203 43.1719 14.8359V14.8203C43.1719 13.3281 42.1875 12.2344 40.5625 12.0469V12.0156C41.7266 11.8516 42.6016 10.7188 42.6016 9.55469V9.53906C42.6016 7.85156 41.2969 6.72656 39.3672 6.72656H35.0938V18ZM39.0469 7.96875C40.4062 7.96875 41.1797 8.57812 41.1797 9.6875V9.70312C41.1797 10.9219 40.2734 11.5859 38.6094 11.5859H36.5V7.96875H39.0469ZM39.0078 12.7969C40.8047 12.7969 41.7266 13.4609 41.7266 14.7656V14.7812C41.7266 16.0781 40.8281 16.7578 39.1406 16.7578H36.5V12.7969H39.0078ZM45.3203 8.5C45.7969 8.5 46.1719 8.11719 46.1719 7.64844C46.1719 7.17188 45.7969 6.79688 45.3203 6.79688C44.8516 6.79688 44.4688 7.17188 44.4688 7.64844C44.4688 8.11719 44.8516 8.5 45.3203 8.5ZM44.6406 18H46V9.875H44.6406V18ZM47.6797 18H53.7422V16.875H49.2578V16.8516L53.7188 10.8672V9.875H47.6875V11H52.1719V11.0234L47.6797 17.0312V18ZM58.3672 18.1562C60.1406 18.1562 61.4688 17.0938 61.7344 15.75L61.75 15.6719H60.4141L60.3906 15.7422C60.1562 16.4375 59.4297 16.9531 58.3984 16.9531C56.9531 16.9531 56.0312 15.9766 56 14.3047H61.8516V13.8047C61.8516 11.3672 60.5 9.71875 58.2812 9.71875C56.0625 9.71875 54.625 11.4453 54.625 13.9609V13.9688C54.625 16.5234 56.0312 18.1562 58.3672 18.1562ZM58.2734 10.9219C59.4609 10.9219 60.3359 11.6641 60.4688 13.2422H56.0234C56.1719 11.7266 57.0938 10.9219 58.2734 10.9219ZM66.1094 18.1562C67.9219 18.1562 69.2656 17.1562 69.2656 15.7344V15.7266C69.2656 14.5703 68.6719 13.9219 67.0312 13.5234L65.7422 13.2109C64.8438 12.9922 64.4766 12.6094 64.4766 12.0547V12.0469C64.4766 11.3281 65.0859 10.8516 66.0703 10.8516C67.0781 10.8516 67.6797 11.375 67.7891 12.1641L67.7969 12.2188H69.0938L69.0859 12.1172C68.9844 10.7578 67.8516 9.71875 66.0703 9.71875C64.3125 9.71875 63.0859 10.7109 63.0859 12.1094V12.1172C63.0859 13.2891 63.8281 14 65.3594 14.3672L66.6484 14.6797C67.5703 14.9062 67.875 15.2344 67.875 15.8203V15.8281C67.875 16.5625 67.2188 17.0234 66.1172 17.0234C65.0078 17.0234 64.4062 16.5469 64.2422 15.7344L64.2266 15.6562H62.8672L62.875 15.7266C63.0391 17.1797 64.1953 18.1562 66.1094 18.1562Z" fill="black"/>
<path d="M110.195 18H111.672L112.812 14.7734H117.352L118.492 18H119.969L115.781 6.72656H114.391L110.195 18ZM115.07 8.41406H115.102L116.93 13.5781H113.242L115.07 8.41406ZM121.125 18H122.484V6.72656H121.125V18ZM125.086 8.5C125.562 8.5 125.938 8.11719 125.938 7.64844C125.938 7.17188 125.562 6.79688 125.086 6.79688C124.617 6.79688 124.234 7.17188 124.234 7.64844C124.234 8.11719 124.617 8.5 125.086 8.5ZM124.406 18H125.766V9.875H124.406V18ZM130.5 18.1562C132.312 18.1562 133.656 17.1562 133.656 15.7344V15.7266C133.656 14.5703 133.062 13.9219 131.422 13.5234L130.133 13.2109C129.234 12.9922 128.867 12.6094 128.867 12.0547V12.0469C128.867 11.3281 129.477 10.8516 130.461 10.8516C131.469 10.8516 132.07 11.375 132.18 12.1641L132.188 12.2188H133.484L133.477 12.1172C133.375 10.7578 132.242 9.71875 130.461 9.71875C128.703 9.71875 127.477 10.7109 127.477 12.1094V12.1172C127.477 13.2891 128.219 14 129.75 14.3672L131.039 14.6797C131.961 14.9062 132.266 15.2344 132.266 15.8203V15.8281C132.266 16.5625 131.609 17.0234 130.508 17.0234C129.398 17.0234 128.797 16.5469 128.633 15.7344L128.617 15.6562H127.258L127.266 15.7266C127.43 17.1797 128.586 18.1562 130.5 18.1562ZM135.141 18H136.5V13.2578C136.5 11.875 137.336 10.9219 138.594 10.9219C139.859 10.9219 140.609 11.7891 140.609 13.2578V18H141.969V13.0234C141.969 11.0547 140.789 9.71875 139.062 9.71875C137.852 9.71875 136.969 10.2578 136.531 11.1719H136.5V6.72656H135.141V18ZM147.039 18.1562C148.812 18.1562 150.141 17.0938 150.406 15.75L150.422 15.6719H149.086L149.062 15.7422C148.828 16.4375 148.102 16.9531 147.07 16.9531C145.625 16.9531 144.703 15.9766 144.672 14.3047H150.523V13.8047C150.523 11.3672 149.172 9.71875 146.953 9.71875C144.734 9.71875 143.297 11.4453 143.297 13.9609V13.9688C143.297 16.5234 144.703 18.1562 147.039 18.1562ZM146.945 10.9219C148.133 10.9219 149.008 11.6641 149.141 13.2422H144.695C144.844 11.7266 145.766 10.9219 146.945 10.9219ZM151.898 18H153.258V12.9844C153.258 11.75 153.945 11.0156 155 11.0156C155.328 11.0156 155.617 11.0547 155.727 11.0938V9.77344C155.617 9.75781 155.414 9.71875 155.18 9.71875C154.266 9.71875 153.562 10.3125 153.289 11.25H153.258V9.875H151.898V18ZM160.328 18H161.734V6.72656H160.328V18ZM166.594 18.1562C168.406 18.1562 169.75 17.1562 169.75 15.7344V15.7266C169.75 14.5703 169.156 13.9219 167.516 13.5234L166.227 13.2109C165.328 12.9922 164.961 12.6094 164.961 12.0547V12.0469C164.961 11.3281 165.57 10.8516 166.555 10.8516C167.562 10.8516 168.164 11.375 168.273 12.1641L168.281 12.2188H169.578L169.57 12.1172C169.469 10.7578 168.336 9.71875 166.555 9.71875C164.797 9.71875 163.57 10.7109 163.57 12.1094V12.1172C163.57 13.2891 164.312 14 165.844 14.3672L167.133 14.6797C168.055 14.9062 168.359 15.2344 168.359 15.8203V15.8281C168.359 16.5625 167.703 17.0234 166.602 17.0234C165.492 17.0234 164.891 16.5469 164.727 15.7344L164.711 15.6562H163.352L163.359 15.7266C163.523 17.1797 164.68 18.1562 166.594 18.1562ZM173.539 18.1562C174.625 18.1562 175.602 17.5703 176.078 16.6797H176.109V18H177.469V12.3828C177.469 10.7578 176.266 9.71875 174.344 9.71875C172.43 9.71875 171.266 10.7969 171.148 12.1328L171.141 12.2188H172.453L172.469 12.1484C172.625 11.4219 173.281 10.9219 174.328 10.9219C175.461 10.9219 176.109 11.5234 176.109 12.5156V13.1953L173.781 13.3281C171.914 13.4375 170.836 14.3047 170.836 15.6875V15.7031C170.836 17.1797 171.922 18.1562 173.539 18.1562ZM172.227 15.7031V15.6875C172.227 14.9297 172.852 14.4453 173.938 14.3828L176.109 14.25V14.9141C176.109 16.0938 175.125 16.9766 173.844 16.9766C172.867 16.9766 172.227 16.4844 172.227 15.7031ZM182.539 18.1562C184.312 18.1562 185.641 17.0938 185.906 15.75L185.922 15.6719H184.586L184.562 15.7422C184.328 16.4375 183.602 16.9531 182.57 16.9531C181.125 16.9531 180.203 15.9766 180.172 14.3047H186.023V13.8047C186.023 11.3672 184.672 9.71875 182.453 9.71875C180.234 9.71875 178.797 11.4453 178.797 13.9609V13.9688C178.797 16.5234 180.203 18.1562 182.539 18.1562ZM182.445 10.9219C183.633 10.9219 184.508 11.6641 184.641 13.2422H180.195C180.344 11.7266 181.266 10.9219 182.445 10.9219ZM189.375 18H190.766L193.75 9.875H192.336L190.086 16.5547H190.055L187.812 9.875H186.383L189.375 18ZM197.562 18.1562C198.727 18.1562 199.633 17.5703 200.141 16.625H200.172V18H201.531V6.72656H200.172V11.2344H200.141C199.633 10.2969 198.688 9.71875 197.539 9.71875C195.5 9.71875 194.109 11.3672 194.109 13.9297V13.9375C194.109 16.5 195.484 18.1562 197.562 18.1562ZM197.828 16.9531C196.391 16.9531 195.5 15.8047 195.5 13.9375V13.9297C195.5 12.0781 196.391 10.9219 197.828 10.9219C199.195 10.9219 200.18 12.1172 200.18 13.9297V13.9375C200.18 15.7578 199.203 16.9531 197.828 16.9531ZM205.742 18.1562C206.828 18.1562 207.805 17.5703 208.281 16.6797H208.312V18H209.672V12.3828C209.672 10.7578 208.469 9.71875 206.547 9.71875C204.633 9.71875 203.469 10.7969 203.352 12.1328L203.344 12.2188H204.656L204.672 12.1484C204.828 11.4219 205.484 10.9219 206.531 10.9219C207.664 10.9219 208.312 11.5234 208.312 12.5156V13.1953L205.984 13.3281C204.117 13.4375 203.039 14.3047 203.039 15.6875V15.7031C203.039 17.1797 204.125 18.1562 205.742 18.1562ZM204.43 15.7031V15.6875C204.43 14.9297 205.055 14.4453 206.141 14.3828L208.312 14.25V14.9141C208.312 16.0938 207.328 16.9766 206.047 16.9766C205.07 16.9766 204.43 16.4844 204.43 15.7031ZM211.398 18H212.758V13.2188C212.758 11.8359 213.594 10.9219 214.875 10.9219C216.125 10.9219 216.742 11.6484 216.742 12.9688V18H218.102V12.7266C218.102 10.875 217.07 9.71875 215.289 9.71875C214.055 9.71875 213.227 10.2734 212.789 11.0312H212.758V9.875H211.398V18ZM220.672 18.1094C221.172 18.1094 221.562 17.7188 221.562 17.2188C221.562 16.7188 221.172 16.3281 220.672 16.3281C220.172 16.3281 219.781 16.7188 219.781 17.2188C219.781 17.7188 220.172 18.1094 220.672 18.1094ZM224.109 18.1094C224.609 18.1094 225 17.7188 225 17.2188C225 16.7188 224.609 16.3281 224.109 16.3281C223.609 16.3281 223.219 16.7188 223.219 17.2188C223.219 17.7188 223.609 18.1094 224.109 18.1094ZM227.547 18.1094C228.047 18.1094 228.438 17.7188 228.438 17.2188C228.438 16.7188 228.047 16.3281 227.547 16.3281C227.047 16.3281 226.656 16.7188 226.656 17.2188C226.656 17.7188 227.047 18.1094 227.547 18.1094Z" fill="black"/>
<g opacity="0.5">
<path d="M87.5 7.16663L93.3333 13L87.5 18.8333" stroke="#18181B" stroke-width="2" stroke-linecap="round" stroke-linejoin="round"/>
</g>
</svg>
